<mxfile host="app.diagrams.net" agent="Mozilla/5.0 (Windows NT 10.0; Win64; x64) AppleWebKit/537.36 (KHTML, like Gecko) Chrome/130.0.0.0 Safari/537.36" version="26.0.16">
  <diagram name="Trang-1" id="hX1ONmvhHD9IJHqYlJ0B">
    <mxGraphModel dx="820" dy="928" grid="1" gridSize="10" guides="1" tooltips="1" connect="1" arrows="1" fold="1" page="1" pageScale="1" pageWidth="827" pageHeight="1169" math="0" shadow="0">
      <root>
        <mxCell id="0" />
        <mxCell id="1" parent="0" />
        <mxCell id="Bnq-mHq1RVCtrIzHJxgw-2" value="Quét QR" style="swimlane;html=1;childLayout=stackLayout;startSize=20;rounded=0;shadow=0;comic=0;labelBackgroundColor=none;strokeWidth=1;fontFamily=Verdana;fontSize=12;align=center;" vertex="1" parent="1">
          <mxGeometry x="1110" y="30" width="870" height="1070" as="geometry" />
        </mxCell>
        <mxCell id="Bnq-mHq1RVCtrIzHJxgw-3" value="Khách hàng" style="swimlane;html=1;startSize=20;" vertex="1" parent="Bnq-mHq1RVCtrIzHJxgw-2">
          <mxGeometry y="20" width="278.5" height="1050" as="geometry" />
        </mxCell>
        <mxCell id="Bnq-mHq1RVCtrIzHJxgw-4" value="" style="ellipse;whiteSpace=wrap;html=1;rounded=0;shadow=0;comic=0;labelBackgroundColor=none;strokeWidth=1;fillColor=#000000;fontFamily=Verdana;fontSize=12;align=center;" vertex="1" parent="Bnq-mHq1RVCtrIzHJxgw-3">
          <mxGeometry x="20" y="50" width="40" height="40" as="geometry" />
        </mxCell>
        <mxCell id="Bnq-mHq1RVCtrIzHJxgw-5" value="Đăng nhập" style="rounded=1;whiteSpace=wrap;html=1;shadow=0;comic=0;labelBackgroundColor=none;strokeWidth=1;fontFamily=Verdana;fontSize=12;align=center;arcSize=50;" vertex="1" parent="Bnq-mHq1RVCtrIzHJxgw-3">
          <mxGeometry x="93.5" y="57.5" width="100" height="25" as="geometry" />
        </mxCell>
        <mxCell id="Bnq-mHq1RVCtrIzHJxgw-6" style="edgeStyle=orthogonalEdgeStyle;rounded=0;html=1;labelBackgroundColor=none;startArrow=none;startFill=0;startSize=5;endArrow=classicThin;endFill=1;endSize=5;jettySize=auto;orthogonalLoop=1;strokeWidth=1;fontFamily=Verdana;fontSize=12" edge="1" parent="Bnq-mHq1RVCtrIzHJxgw-3" source="Bnq-mHq1RVCtrIzHJxgw-4" target="Bnq-mHq1RVCtrIzHJxgw-5">
          <mxGeometry relative="1" as="geometry" />
        </mxCell>
        <mxCell id="Bnq-mHq1RVCtrIzHJxgw-7" style="edgeStyle=orthogonalEdgeStyle;rounded=0;orthogonalLoop=1;jettySize=auto;html=1;entryX=0.5;entryY=0;entryDx=0;entryDy=0;" edge="1" parent="Bnq-mHq1RVCtrIzHJxgw-3" source="Bnq-mHq1RVCtrIzHJxgw-8" target="Bnq-mHq1RVCtrIzHJxgw-14">
          <mxGeometry relative="1" as="geometry" />
        </mxCell>
        <mxCell id="Bnq-mHq1RVCtrIzHJxgw-8" value="Chọn Quét QR" style="rounded=1;whiteSpace=wrap;html=1;shadow=0;comic=0;labelBackgroundColor=none;strokeWidth=1;fontFamily=Verdana;fontSize=12;align=center;arcSize=50;" vertex="1" parent="Bnq-mHq1RVCtrIzHJxgw-3">
          <mxGeometry x="93.5" y="100" width="100" height="30" as="geometry" />
        </mxCell>
        <mxCell id="Bnq-mHq1RVCtrIzHJxgw-9" value="" style="endArrow=classic;html=1;rounded=0;exitX=0.5;exitY=1;exitDx=0;exitDy=0;entryX=0.5;entryY=0;entryDx=0;entryDy=0;" edge="1" parent="Bnq-mHq1RVCtrIzHJxgw-3" source="Bnq-mHq1RVCtrIzHJxgw-5" target="Bnq-mHq1RVCtrIzHJxgw-8">
          <mxGeometry width="50" height="50" relative="1" as="geometry">
            <mxPoint x="340" y="160" as="sourcePoint" />
            <mxPoint x="165" y="100" as="targetPoint" />
          </mxGeometry>
        </mxCell>
        <mxCell id="Bnq-mHq1RVCtrIzHJxgw-10" style="edgeStyle=orthogonalEdgeStyle;rounded=0;orthogonalLoop=1;jettySize=auto;html=1;exitX=0.5;exitY=1;exitDx=0;exitDy=0;entryX=0.5;entryY=0;entryDx=0;entryDy=0;" edge="1" parent="Bnq-mHq1RVCtrIzHJxgw-3" source="Bnq-mHq1RVCtrIzHJxgw-11" target="Bnq-mHq1RVCtrIzHJxgw-17">
          <mxGeometry relative="1" as="geometry" />
        </mxCell>
        <mxCell id="Bnq-mHq1RVCtrIzHJxgw-11" value="QR động" style="rounded=1;whiteSpace=wrap;html=1;shadow=0;comic=0;labelBackgroundColor=none;strokeWidth=1;fontFamily=Verdana;fontSize=12;align=center;arcSize=50;" vertex="1" parent="Bnq-mHq1RVCtrIzHJxgw-3">
          <mxGeometry x="10" y="300" width="100" height="30" as="geometry" />
        </mxCell>
        <mxCell id="Bnq-mHq1RVCtrIzHJxgw-12" style="edgeStyle=orthogonalEdgeStyle;rounded=0;orthogonalLoop=1;jettySize=auto;html=1;exitX=0.25;exitY=1;exitDx=0;exitDy=0;entryX=0.5;entryY=0;entryDx=0;entryDy=0;" edge="1" parent="Bnq-mHq1RVCtrIzHJxgw-3" source="Bnq-mHq1RVCtrIzHJxgw-14" target="Bnq-mHq1RVCtrIzHJxgw-11">
          <mxGeometry relative="1" as="geometry" />
        </mxCell>
        <mxCell id="Bnq-mHq1RVCtrIzHJxgw-13" style="edgeStyle=orthogonalEdgeStyle;rounded=0;orthogonalLoop=1;jettySize=auto;html=1;exitX=0.75;exitY=1;exitDx=0;exitDy=0;entryX=0.5;entryY=0;entryDx=0;entryDy=0;" edge="1" parent="Bnq-mHq1RVCtrIzHJxgw-3" source="Bnq-mHq1RVCtrIzHJxgw-14" target="Bnq-mHq1RVCtrIzHJxgw-16">
          <mxGeometry relative="1" as="geometry" />
        </mxCell>
        <mxCell id="Bnq-mHq1RVCtrIzHJxgw-14" value="" style="whiteSpace=wrap;html=1;rounded=0;shadow=0;comic=0;labelBackgroundColor=none;strokeWidth=1;fillColor=#000000;fontFamily=Verdana;fontSize=12;align=center;rotation=0;" vertex="1" parent="Bnq-mHq1RVCtrIzHJxgw-3">
          <mxGeometry x="70" y="250" width="147" height="10" as="geometry" />
        </mxCell>
        <mxCell id="Bnq-mHq1RVCtrIzHJxgw-15" style="edgeStyle=orthogonalEdgeStyle;rounded=0;orthogonalLoop=1;jettySize=auto;html=1;exitX=0.5;exitY=1;exitDx=0;exitDy=0;entryX=0.5;entryY=0;entryDx=0;entryDy=0;" edge="1" parent="Bnq-mHq1RVCtrIzHJxgw-3" source="Bnq-mHq1RVCtrIzHJxgw-16" target="Bnq-mHq1RVCtrIzHJxgw-18">
          <mxGeometry relative="1" as="geometry" />
        </mxCell>
        <mxCell id="Bnq-mHq1RVCtrIzHJxgw-16" value="QR tĩnh" style="rounded=1;whiteSpace=wrap;html=1;shadow=0;comic=0;labelBackgroundColor=none;strokeWidth=1;fontFamily=Verdana;fontSize=12;align=center;arcSize=50;" vertex="1" parent="Bnq-mHq1RVCtrIzHJxgw-3">
          <mxGeometry x="160" y="300" width="100" height="30" as="geometry" />
        </mxCell>
        <mxCell id="Bnq-mHq1RVCtrIzHJxgw-17" value="Nhập thông tin giao dịch" style="rounded=1;whiteSpace=wrap;html=1;shadow=0;comic=0;labelBackgroundColor=none;strokeWidth=1;fontFamily=Verdana;fontSize=12;align=center;arcSize=50;" vertex="1" parent="Bnq-mHq1RVCtrIzHJxgw-3">
          <mxGeometry x="10" y="350" width="100" height="30" as="geometry" />
        </mxCell>
        <mxCell id="Bnq-mHq1RVCtrIzHJxgw-18" value="Kiểm tra thông tin giao dịch" style="rounded=1;whiteSpace=wrap;html=1;shadow=0;comic=0;labelBackgroundColor=none;strokeWidth=1;fontFamily=Verdana;fontSize=12;align=center;arcSize=50;" vertex="1" parent="Bnq-mHq1RVCtrIzHJxgw-3">
          <mxGeometry x="160" y="350" width="100" height="30" as="geometry" />
        </mxCell>
        <mxCell id="Bnq-mHq1RVCtrIzHJxgw-19" style="edgeStyle=orthogonalEdgeStyle;rounded=0;orthogonalLoop=1;jettySize=auto;html=1;exitX=0.5;exitY=1;exitDx=0;exitDy=0;entryX=0.5;entryY=0;entryDx=0;entryDy=0;" edge="1" parent="Bnq-mHq1RVCtrIzHJxgw-3" source="Bnq-mHq1RVCtrIzHJxgw-20" target="Bnq-mHq1RVCtrIzHJxgw-21">
          <mxGeometry relative="1" as="geometry" />
        </mxCell>
        <mxCell id="Bnq-mHq1RVCtrIzHJxgw-20" value="" style="whiteSpace=wrap;html=1;rounded=0;shadow=0;comic=0;labelBackgroundColor=none;strokeWidth=1;fillColor=#000000;fontFamily=Verdana;fontSize=12;align=center;rotation=0;" vertex="1" parent="Bnq-mHq1RVCtrIzHJxgw-3">
          <mxGeometry x="65.75" y="430" width="147" height="10" as="geometry" />
        </mxCell>
        <mxCell id="Bnq-mHq1RVCtrIzHJxgw-21" value="Xác nhận giao dịch" style="rounded=1;whiteSpace=wrap;html=1;shadow=0;comic=0;labelBackgroundColor=none;strokeWidth=1;fontFamily=Verdana;fontSize=12;align=center;arcSize=50;" vertex="1" parent="Bnq-mHq1RVCtrIzHJxgw-3">
          <mxGeometry x="89.25" y="460" width="100" height="30" as="geometry" />
        </mxCell>
        <mxCell id="Bnq-mHq1RVCtrIzHJxgw-22" style="edgeStyle=orthogonalEdgeStyle;rounded=0;orthogonalLoop=1;jettySize=auto;html=1;exitX=0.5;exitY=1;exitDx=0;exitDy=0;entryX=0.839;entryY=-0.227;entryDx=0;entryDy=0;entryPerimeter=0;" edge="1" parent="Bnq-mHq1RVCtrIzHJxgw-3" source="Bnq-mHq1RVCtrIzHJxgw-18" target="Bnq-mHq1RVCtrIzHJxgw-20">
          <mxGeometry relative="1" as="geometry" />
        </mxCell>
        <mxCell id="Bnq-mHq1RVCtrIzHJxgw-23" style="edgeStyle=orthogonalEdgeStyle;rounded=0;orthogonalLoop=1;jettySize=auto;html=1;exitX=0.5;exitY=1;exitDx=0;exitDy=0;entryX=0.2;entryY=-0.126;entryDx=0;entryDy=0;entryPerimeter=0;" edge="1" parent="Bnq-mHq1RVCtrIzHJxgw-3" source="Bnq-mHq1RVCtrIzHJxgw-17" target="Bnq-mHq1RVCtrIzHJxgw-20">
          <mxGeometry relative="1" as="geometry" />
        </mxCell>
        <mxCell id="Bnq-mHq1RVCtrIzHJxgw-24" value="Nhập mã pin" style="rounded=1;whiteSpace=wrap;html=1;shadow=0;comic=0;labelBackgroundColor=none;strokeWidth=1;fontFamily=Verdana;fontSize=12;align=center;arcSize=50;" vertex="1" parent="Bnq-mHq1RVCtrIzHJxgw-3">
          <mxGeometry x="40" y="570" width="100" height="30" as="geometry" />
        </mxCell>
        <mxCell id="Bnq-mHq1RVCtrIzHJxgw-25" value="Nhập lại mã pin" style="rounded=1;whiteSpace=wrap;html=1;shadow=0;comic=0;labelBackgroundColor=none;strokeWidth=1;fontFamily=Verdana;fontSize=12;align=center;arcSize=50;" vertex="1" parent="Bnq-mHq1RVCtrIzHJxgw-3">
          <mxGeometry x="60" y="740" width="100" height="30" as="geometry" />
        </mxCell>
        <mxCell id="Bnq-mHq1RVCtrIzHJxgw-26" value="" style="endArrow=classic;html=1;rounded=0;exitX=1;exitY=0.5;exitDx=0;exitDy=0;entryX=0;entryY=0.5;entryDx=0;entryDy=0;" edge="1" parent="Bnq-mHq1RVCtrIzHJxgw-2" source="Bnq-mHq1RVCtrIzHJxgw-8" target="Bnq-mHq1RVCtrIzHJxgw-40">
          <mxGeometry width="50" height="50" relative="1" as="geometry">
            <mxPoint x="155" y="170" as="sourcePoint" />
            <mxPoint x="340" y="120" as="targetPoint" />
            <Array as="points" />
          </mxGeometry>
        </mxCell>
        <mxCell id="Bnq-mHq1RVCtrIzHJxgw-27" style="edgeStyle=orthogonalEdgeStyle;rounded=0;orthogonalLoop=1;jettySize=auto;html=1;exitX=0;exitY=0.5;exitDx=0;exitDy=0;entryX=0.75;entryY=0;entryDx=0;entryDy=0;" edge="1" parent="Bnq-mHq1RVCtrIzHJxgw-2" source="Bnq-mHq1RVCtrIzHJxgw-41" target="Bnq-mHq1RVCtrIzHJxgw-14">
          <mxGeometry relative="1" as="geometry">
            <mxPoint x="278.5" y="175" as="targetPoint" />
            <mxPoint x="485" y="90" as="sourcePoint" />
          </mxGeometry>
        </mxCell>
        <mxCell id="Bnq-mHq1RVCtrIzHJxgw-28" value="hợp lệ" style="edgeLabel;html=1;align=center;verticalAlign=middle;resizable=0;points=[];" vertex="1" connectable="0" parent="Bnq-mHq1RVCtrIzHJxgw-27">
          <mxGeometry x="0.0179" y="-1" relative="1" as="geometry">
            <mxPoint as="offset" />
          </mxGeometry>
        </mxCell>
        <mxCell id="Bnq-mHq1RVCtrIzHJxgw-29" style="edgeStyle=orthogonalEdgeStyle;rounded=0;orthogonalLoop=1;jettySize=auto;html=1;exitX=1;exitY=0.5;exitDx=0;exitDy=0;entryX=0;entryY=0.5;entryDx=0;entryDy=0;" edge="1" parent="Bnq-mHq1RVCtrIzHJxgw-2" source="Bnq-mHq1RVCtrIzHJxgw-21" target="Bnq-mHq1RVCtrIzHJxgw-75">
          <mxGeometry relative="1" as="geometry" />
        </mxCell>
        <mxCell id="Bnq-mHq1RVCtrIzHJxgw-30" style="edgeStyle=orthogonalEdgeStyle;rounded=0;orthogonalLoop=1;jettySize=auto;html=1;exitX=0;exitY=0.5;exitDx=0;exitDy=0;" edge="1" parent="Bnq-mHq1RVCtrIzHJxgw-2" source="Bnq-mHq1RVCtrIzHJxgw-42" target="Bnq-mHq1RVCtrIzHJxgw-24">
          <mxGeometry relative="1" as="geometry" />
        </mxCell>
        <mxCell id="Bnq-mHq1RVCtrIzHJxgw-31" style="edgeStyle=orthogonalEdgeStyle;rounded=0;orthogonalLoop=1;jettySize=auto;html=1;exitX=0.75;exitY=0;exitDx=0;exitDy=0;entryX=0.5;entryY=0;entryDx=0;entryDy=0;" edge="1" parent="Bnq-mHq1RVCtrIzHJxgw-2" source="Bnq-mHq1RVCtrIzHJxgw-24" target="Bnq-mHq1RVCtrIzHJxgw-44">
          <mxGeometry relative="1" as="geometry" />
        </mxCell>
        <mxCell id="Bnq-mHq1RVCtrIzHJxgw-32" style="edgeStyle=orthogonalEdgeStyle;rounded=0;orthogonalLoop=1;jettySize=auto;html=1;exitX=0;exitY=0.5;exitDx=0;exitDy=0;entryX=0.5;entryY=1;entryDx=0;entryDy=0;" edge="1" parent="Bnq-mHq1RVCtrIzHJxgw-2" source="Bnq-mHq1RVCtrIzHJxgw-58" target="Bnq-mHq1RVCtrIzHJxgw-25">
          <mxGeometry relative="1" as="geometry" />
        </mxCell>
        <mxCell id="Bnq-mHq1RVCtrIzHJxgw-33" style="edgeStyle=orthogonalEdgeStyle;rounded=0;orthogonalLoop=1;jettySize=auto;html=1;exitX=1;exitY=0.5;exitDx=0;exitDy=0;entryX=0;entryY=0.5;entryDx=0;entryDy=0;" edge="1" parent="Bnq-mHq1RVCtrIzHJxgw-2" source="Bnq-mHq1RVCtrIzHJxgw-25" target="Bnq-mHq1RVCtrIzHJxgw-44">
          <mxGeometry relative="1" as="geometry" />
        </mxCell>
        <mxCell id="Bnq-mHq1RVCtrIzHJxgw-34" style="edgeStyle=orthogonalEdgeStyle;rounded=0;orthogonalLoop=1;jettySize=auto;html=1;exitX=1;exitY=0.5;exitDx=0;exitDy=0;entryX=0.5;entryY=0;entryDx=0;entryDy=0;" edge="1" parent="Bnq-mHq1RVCtrIzHJxgw-2" source="Bnq-mHq1RVCtrIzHJxgw-52" target="Bnq-mHq1RVCtrIzHJxgw-70">
          <mxGeometry relative="1" as="geometry">
            <mxPoint x="660" y="825.090909090909" as="targetPoint" />
          </mxGeometry>
        </mxCell>
        <mxCell id="Bnq-mHq1RVCtrIzHJxgw-35" style="edgeStyle=orthogonalEdgeStyle;rounded=0;orthogonalLoop=1;jettySize=auto;html=1;exitX=0;exitY=0.5;exitDx=0;exitDy=0;entryX=0.5;entryY=0;entryDx=0;entryDy=0;" edge="1" parent="Bnq-mHq1RVCtrIzHJxgw-2" source="Bnq-mHq1RVCtrIzHJxgw-73" target="Bnq-mHq1RVCtrIzHJxgw-55">
          <mxGeometry relative="1" as="geometry">
            <mxPoint x="503.8800000000001" y="775" as="targetPoint" />
          </mxGeometry>
        </mxCell>
        <mxCell id="Bnq-mHq1RVCtrIzHJxgw-36" value="Thành công" style="edgeLabel;html=1;align=center;verticalAlign=middle;resizable=0;points=[];" vertex="1" connectable="0" parent="Bnq-mHq1RVCtrIzHJxgw-35">
          <mxGeometry x="-0.4487" y="2" relative="1" as="geometry">
            <mxPoint as="offset" />
          </mxGeometry>
        </mxCell>
        <mxCell id="Bnq-mHq1RVCtrIzHJxgw-37" style="edgeStyle=orthogonalEdgeStyle;rounded=0;orthogonalLoop=1;jettySize=auto;html=1;exitX=0;exitY=0.5;exitDx=0;exitDy=0;entryX=0.75;entryY=0;entryDx=0;entryDy=0;" edge="1" parent="Bnq-mHq1RVCtrIzHJxgw-2" source="Bnq-mHq1RVCtrIzHJxgw-74" target="Bnq-mHq1RVCtrIzHJxgw-55">
          <mxGeometry relative="1" as="geometry">
            <mxPoint x="560" y="820" as="targetPoint" />
          </mxGeometry>
        </mxCell>
        <mxCell id="Bnq-mHq1RVCtrIzHJxgw-38" value="&lt;b&gt;Hệ thống&lt;/b&gt;" style="swimlane;html=1;startSize=20;fontStyle=0" vertex="1" parent="Bnq-mHq1RVCtrIzHJxgw-2">
          <mxGeometry x="278.5" y="20" width="341.5" height="1050" as="geometry">
            <mxRectangle x="278.5" y="20" width="40" height="1050" as="alternateBounds" />
          </mxGeometry>
        </mxCell>
        <mxCell id="Bnq-mHq1RVCtrIzHJxgw-39" style="edgeStyle=orthogonalEdgeStyle;rounded=0;orthogonalLoop=1;jettySize=auto;html=1;exitX=0.5;exitY=1;exitDx=0;exitDy=0;" edge="1" parent="Bnq-mHq1RVCtrIzHJxgw-38" source="Bnq-mHq1RVCtrIzHJxgw-40" target="Bnq-mHq1RVCtrIzHJxgw-41">
          <mxGeometry relative="1" as="geometry" />
        </mxCell>
        <mxCell id="Bnq-mHq1RVCtrIzHJxgw-40" value="Quét QR" style="rounded=1;whiteSpace=wrap;html=1;shadow=0;comic=0;labelBackgroundColor=none;strokeWidth=1;fontFamily=Verdana;fontSize=12;align=center;arcSize=50;" vertex="1" parent="Bnq-mHq1RVCtrIzHJxgw-38">
          <mxGeometry x="41.5" y="100" width="100" height="30" as="geometry" />
        </mxCell>
        <mxCell id="Bnq-mHq1RVCtrIzHJxgw-41" value="" style="rhombus;whiteSpace=wrap;html=1;" vertex="1" parent="Bnq-mHq1RVCtrIzHJxgw-38">
          <mxGeometry x="76.5" y="140" width="30" height="30" as="geometry" />
        </mxCell>
        <mxCell id="Bnq-mHq1RVCtrIzHJxgw-42" value="Yêu cầu nhập mã pin" style="rounded=1;whiteSpace=wrap;html=1;shadow=0;comic=0;labelBackgroundColor=none;strokeWidth=1;fontFamily=Verdana;fontSize=12;align=center;arcSize=50;" vertex="1" parent="Bnq-mHq1RVCtrIzHJxgw-38">
          <mxGeometry x="181.5" y="510" width="100" height="30" as="geometry" />
        </mxCell>
        <mxCell id="Bnq-mHq1RVCtrIzHJxgw-43" style="edgeStyle=orthogonalEdgeStyle;rounded=0;orthogonalLoop=1;jettySize=auto;html=1;exitX=0.5;exitY=1;exitDx=0;exitDy=0;entryX=0.5;entryY=0;entryDx=0;entryDy=0;" edge="1" parent="Bnq-mHq1RVCtrIzHJxgw-38" source="Bnq-mHq1RVCtrIzHJxgw-44" target="Bnq-mHq1RVCtrIzHJxgw-50">
          <mxGeometry relative="1" as="geometry" />
        </mxCell>
        <mxCell id="Bnq-mHq1RVCtrIzHJxgw-44" value="Kiểm tra mã pin" style="rounded=1;whiteSpace=wrap;html=1;shadow=0;comic=0;labelBackgroundColor=none;strokeWidth=1;fontFamily=Verdana;fontSize=12;align=center;arcSize=50;" vertex="1" parent="Bnq-mHq1RVCtrIzHJxgw-38">
          <mxGeometry x="81.5" y="550" width="100" height="30" as="geometry" />
        </mxCell>
        <mxCell id="Bnq-mHq1RVCtrIzHJxgw-45" style="edgeStyle=orthogonalEdgeStyle;rounded=0;orthogonalLoop=1;jettySize=auto;html=1;exitX=1;exitY=0.5;exitDx=0;exitDy=0;entryX=0.5;entryY=0;entryDx=0;entryDy=0;" edge="1" parent="Bnq-mHq1RVCtrIzHJxgw-38" source="Bnq-mHq1RVCtrIzHJxgw-50" target="Bnq-mHq1RVCtrIzHJxgw-52">
          <mxGeometry relative="1" as="geometry">
            <mxPoint x="134.25" y="680" as="targetPoint" />
          </mxGeometry>
        </mxCell>
        <mxCell id="Bnq-mHq1RVCtrIzHJxgw-46" value="Sai" style="edgeLabel;html=1;align=center;verticalAlign=middle;resizable=0;points=[];" vertex="1" connectable="0" parent="Bnq-mHq1RVCtrIzHJxgw-45">
          <mxGeometry x="-0.6492" y="-1" relative="1" as="geometry">
            <mxPoint as="offset" />
          </mxGeometry>
        </mxCell>
        <mxCell id="Bnq-mHq1RVCtrIzHJxgw-47" value="Đúng" style="edgeLabel;html=1;align=center;verticalAlign=middle;resizable=0;points=[];" vertex="1" connectable="0" parent="Bnq-mHq1RVCtrIzHJxgw-45">
          <mxGeometry x="-0.6514" y="1" relative="1" as="geometry">
            <mxPoint as="offset" />
          </mxGeometry>
        </mxCell>
        <mxCell id="Bnq-mHq1RVCtrIzHJxgw-48" style="edgeStyle=orthogonalEdgeStyle;rounded=0;orthogonalLoop=1;jettySize=auto;html=1;exitX=0;exitY=0.5;exitDx=0;exitDy=0;entryX=0.5;entryY=0;entryDx=0;entryDy=0;" edge="1" parent="Bnq-mHq1RVCtrIzHJxgw-38" source="Bnq-mHq1RVCtrIzHJxgw-50" target="Bnq-mHq1RVCtrIzHJxgw-57">
          <mxGeometry relative="1" as="geometry" />
        </mxCell>
        <mxCell id="Bnq-mHq1RVCtrIzHJxgw-49" value="Sai" style="edgeLabel;html=1;align=center;verticalAlign=middle;resizable=0;points=[];" vertex="1" connectable="0" parent="Bnq-mHq1RVCtrIzHJxgw-48">
          <mxGeometry x="-0.3665" y="-2" relative="1" as="geometry">
            <mxPoint as="offset" />
          </mxGeometry>
        </mxCell>
        <mxCell id="Bnq-mHq1RVCtrIzHJxgw-50" value="" style="rhombus;whiteSpace=wrap;html=1;" vertex="1" parent="Bnq-mHq1RVCtrIzHJxgw-38">
          <mxGeometry x="119.25" y="600" width="30" height="30" as="geometry" />
        </mxCell>
        <mxCell id="Bnq-mHq1RVCtrIzHJxgw-51" value="Lỗi số dư không đủ" style="rounded=1;whiteSpace=wrap;html=1;shadow=0;comic=0;labelBackgroundColor=none;strokeWidth=1;fontFamily=Verdana;fontSize=12;align=center;arcSize=50;" vertex="1" parent="Bnq-mHq1RVCtrIzHJxgw-38">
          <mxGeometry x="221.5" y="570" width="100" height="30" as="geometry" />
        </mxCell>
        <mxCell id="Bnq-mHq1RVCtrIzHJxgw-52" value="Gửi yêu cầu giao dịch" style="rounded=1;whiteSpace=wrap;html=1;shadow=0;comic=0;labelBackgroundColor=none;strokeWidth=1;fontFamily=Verdana;fontSize=12;align=center;arcSize=50;" vertex="1" parent="Bnq-mHq1RVCtrIzHJxgw-38">
          <mxGeometry x="160.75" y="640" width="100" height="30" as="geometry" />
        </mxCell>
        <mxCell id="Bnq-mHq1RVCtrIzHJxgw-53" value="" style="shape=mxgraph.bpmn.shape;html=1;verticalLabelPosition=bottom;labelBackgroundColor=#ffffff;verticalAlign=top;perimeter=ellipsePerimeter;outline=end;symbol=terminate;rounded=0;shadow=0;comic=0;strokeWidth=1;fontFamily=Verdana;fontSize=12;align=center;" vertex="1" parent="Bnq-mHq1RVCtrIzHJxgw-38">
          <mxGeometry x="155.38" y="1000" width="40" height="40" as="geometry" />
        </mxCell>
        <mxCell id="Bnq-mHq1RVCtrIzHJxgw-54" style="edgeStyle=orthogonalEdgeStyle;rounded=0;orthogonalLoop=1;jettySize=auto;html=1;entryX=0.5;entryY=0;entryDx=0;entryDy=0;" edge="1" parent="Bnq-mHq1RVCtrIzHJxgw-38" source="Bnq-mHq1RVCtrIzHJxgw-55" target="Bnq-mHq1RVCtrIzHJxgw-53">
          <mxGeometry relative="1" as="geometry" />
        </mxCell>
        <mxCell id="Bnq-mHq1RVCtrIzHJxgw-55" value="" style="whiteSpace=wrap;html=1;rounded=0;shadow=0;comic=0;labelBackgroundColor=none;strokeWidth=1;fillColor=#000000;fontFamily=Verdana;fontSize=12;align=center;rotation=0;" vertex="1" parent="Bnq-mHq1RVCtrIzHJxgw-38">
          <mxGeometry x="60.75" y="960" width="229.25" height="10" as="geometry" />
        </mxCell>
        <mxCell id="Bnq-mHq1RVCtrIzHJxgw-56" style="edgeStyle=orthogonalEdgeStyle;rounded=0;orthogonalLoop=1;jettySize=auto;html=1;exitX=0.5;exitY=1;exitDx=0;exitDy=0;entryX=0.5;entryY=0;entryDx=0;entryDy=0;" edge="1" parent="Bnq-mHq1RVCtrIzHJxgw-38" source="Bnq-mHq1RVCtrIzHJxgw-57" target="Bnq-mHq1RVCtrIzHJxgw-61">
          <mxGeometry relative="1" as="geometry">
            <mxPoint x="54.5" y="820" as="targetPoint" />
          </mxGeometry>
        </mxCell>
        <mxCell id="Bnq-mHq1RVCtrIzHJxgw-57" value="Lỗi sai mã pin" style="rounded=1;whiteSpace=wrap;html=1;shadow=0;comic=0;labelBackgroundColor=none;strokeWidth=1;fontFamily=Verdana;fontSize=12;align=center;arcSize=50;" vertex="1" parent="Bnq-mHq1RVCtrIzHJxgw-38">
          <mxGeometry x="14.25" y="650" width="100" height="30" as="geometry" />
        </mxCell>
        <mxCell id="Bnq-mHq1RVCtrIzHJxgw-58" value="Yêu cầu nhập lại" style="rounded=1;whiteSpace=wrap;html=1;shadow=0;comic=0;labelBackgroundColor=none;strokeWidth=1;fontFamily=Verdana;fontSize=12;align=center;arcSize=50;" vertex="1" parent="Bnq-mHq1RVCtrIzHJxgw-38">
          <mxGeometry x="4.25" y="890" width="100" height="30" as="geometry" />
        </mxCell>
        <mxCell id="Bnq-mHq1RVCtrIzHJxgw-59" style="edgeStyle=orthogonalEdgeStyle;rounded=0;orthogonalLoop=1;jettySize=auto;html=1;exitX=1;exitY=0.5;exitDx=0;exitDy=0;entryX=0.5;entryY=0;entryDx=0;entryDy=0;" edge="1" parent="Bnq-mHq1RVCtrIzHJxgw-38" source="Bnq-mHq1RVCtrIzHJxgw-61" target="Bnq-mHq1RVCtrIzHJxgw-63">
          <mxGeometry relative="1" as="geometry">
            <mxPoint x="201.5" y="819.6363636363635" as="targetPoint" />
          </mxGeometry>
        </mxCell>
        <mxCell id="Bnq-mHq1RVCtrIzHJxgw-60" value="Đúng" style="edgeLabel;html=1;align=center;verticalAlign=middle;resizable=0;points=[];" vertex="1" connectable="0" parent="Bnq-mHq1RVCtrIzHJxgw-59">
          <mxGeometry x="-0.7533" relative="1" as="geometry">
            <mxPoint as="offset" />
          </mxGeometry>
        </mxCell>
        <mxCell id="Bnq-mHq1RVCtrIzHJxgw-61" value="Quá 5 lần" style="rhombus;whiteSpace=wrap;html=1;" vertex="1" parent="Bnq-mHq1RVCtrIzHJxgw-38">
          <mxGeometry x="4.25" y="720" width="63.5" height="60" as="geometry" />
        </mxCell>
        <mxCell id="Bnq-mHq1RVCtrIzHJxgw-62" style="edgeStyle=orthogonalEdgeStyle;rounded=0;orthogonalLoop=1;jettySize=auto;html=1;exitX=0.5;exitY=1;exitDx=0;exitDy=0;entryX=0.25;entryY=0;entryDx=0;entryDy=0;" edge="1" parent="Bnq-mHq1RVCtrIzHJxgw-38" source="Bnq-mHq1RVCtrIzHJxgw-63" target="Bnq-mHq1RVCtrIzHJxgw-55">
          <mxGeometry relative="1" as="geometry" />
        </mxCell>
        <mxCell id="Bnq-mHq1RVCtrIzHJxgw-63" value="Khoá tài khoản" style="rounded=1;whiteSpace=wrap;html=1;shadow=0;comic=0;labelBackgroundColor=none;strokeWidth=1;fontFamily=Verdana;fontSize=12;align=center;arcSize=50;" vertex="1" parent="Bnq-mHq1RVCtrIzHJxgw-38">
          <mxGeometry x="67.75" y="830" width="100" height="30" as="geometry" />
        </mxCell>
        <mxCell id="Bnq-mHq1RVCtrIzHJxgw-64" style="edgeStyle=orthogonalEdgeStyle;rounded=0;orthogonalLoop=1;jettySize=auto;html=1;exitX=0.75;exitY=1;exitDx=0;exitDy=0;entryX=0.919;entryY=0;entryDx=0;entryDy=0;entryPerimeter=0;" edge="1" parent="Bnq-mHq1RVCtrIzHJxgw-38" target="Bnq-mHq1RVCtrIzHJxgw-55">
          <mxGeometry relative="1" as="geometry">
            <mxPoint x="297.63" y="664.97" as="sourcePoint" />
            <mxPoint x="281.5015000000002" y="1023.51" as="targetPoint" />
            <Array as="points">
              <mxPoint x="298" y="600" />
              <mxPoint x="298" y="960" />
            </Array>
          </mxGeometry>
        </mxCell>
        <mxCell id="Bnq-mHq1RVCtrIzHJxgw-65" style="edgeStyle=orthogonalEdgeStyle;rounded=0;orthogonalLoop=1;jettySize=auto;html=1;exitX=0.5;exitY=1;exitDx=0;exitDy=0;entryX=0.316;entryY=-0.005;entryDx=0;entryDy=0;entryPerimeter=0;" edge="1" parent="Bnq-mHq1RVCtrIzHJxgw-38" source="Bnq-mHq1RVCtrIzHJxgw-61" target="Bnq-mHq1RVCtrIzHJxgw-58">
          <mxGeometry relative="1" as="geometry" />
        </mxCell>
        <mxCell id="Bnq-mHq1RVCtrIzHJxgw-66" value="Sai" style="edgeLabel;html=1;align=center;verticalAlign=middle;resizable=0;points=[];" vertex="1" connectable="0" parent="Bnq-mHq1RVCtrIzHJxgw-65">
          <mxGeometry x="-0.3711" y="1" relative="1" as="geometry">
            <mxPoint as="offset" />
          </mxGeometry>
        </mxCell>
        <mxCell id="Bnq-mHq1RVCtrIzHJxgw-67" value="Yêu cầu giao dịch" style="rounded=1;whiteSpace=wrap;html=1;shadow=0;comic=0;labelBackgroundColor=none;strokeWidth=1;fontFamily=Verdana;fontSize=12;align=center;arcSize=50;" vertex="1" parent="Bnq-mHq1RVCtrIzHJxgw-38">
          <mxGeometry x="121.5" y="460" width="100" height="30" as="geometry" />
        </mxCell>
        <mxCell id="Bnq-mHq1RVCtrIzHJxgw-68" value="Ngân hàng" style="swimlane;html=1;startSize=20;" vertex="1" parent="Bnq-mHq1RVCtrIzHJxgw-2">
          <mxGeometry x="620" y="20" width="250" height="1050" as="geometry" />
        </mxCell>
        <mxCell id="Bnq-mHq1RVCtrIzHJxgw-69" style="edgeStyle=orthogonalEdgeStyle;rounded=0;orthogonalLoop=1;jettySize=auto;html=1;exitX=0.5;exitY=1;exitDx=0;exitDy=0;entryX=0.5;entryY=0;entryDx=0;entryDy=0;" edge="1" parent="Bnq-mHq1RVCtrIzHJxgw-68" source="Bnq-mHq1RVCtrIzHJxgw-70" target="Bnq-mHq1RVCtrIzHJxgw-73">
          <mxGeometry relative="1" as="geometry">
            <mxPoint x="133.27272727272702" y="790" as="targetPoint" />
          </mxGeometry>
        </mxCell>
        <mxCell id="Bnq-mHq1RVCtrIzHJxgw-70" value="Xử lý yêu cầu" style="rounded=1;whiteSpace=wrap;html=1;shadow=0;comic=0;labelBackgroundColor=none;strokeWidth=1;fontFamily=Verdana;fontSize=12;align=center;arcSize=50;" vertex="1" parent="Bnq-mHq1RVCtrIzHJxgw-68">
          <mxGeometry x="90" y="680" width="100" height="30" as="geometry" />
        </mxCell>
        <mxCell id="Bnq-mHq1RVCtrIzHJxgw-71" style="edgeStyle=orthogonalEdgeStyle;rounded=0;orthogonalLoop=1;jettySize=auto;html=1;exitX=1;exitY=0.5;exitDx=0;exitDy=0;entryX=0.5;entryY=0;entryDx=0;entryDy=0;" edge="1" parent="Bnq-mHq1RVCtrIzHJxgw-68" source="Bnq-mHq1RVCtrIzHJxgw-73" target="Bnq-mHq1RVCtrIzHJxgw-74">
          <mxGeometry relative="1" as="geometry">
            <mxPoint x="203" y="870" as="targetPoint" />
          </mxGeometry>
        </mxCell>
        <mxCell id="Bnq-mHq1RVCtrIzHJxgw-72" value="Thất bại&lt;span style=&quot;color: rgba(0, 0, 0, 0); font-family: monospace; font-size: 0px; text-align: start; background-color: rgb(251, 251, 251);&quot;&gt;%3CmxGraphModel%3E%3Croot%3E%3CmxCell%20id%3D%220%22%2F%3E%3CmxCell%20id%3D%221%22%20parent%3D%220%22%2F%3E%3CmxCell%20id%3D%222%22%20value%3D%22Kho%C3%A1%20t%C3%A0i%20kho%E1%BA%A3n%22%20style%3D%22rounded%3D1%3BwhiteSpace%3Dwrap%3Bhtml%3D1%3Bshadow%3D0%3Bcomic%3D0%3BlabelBackgroundColor%3Dnone%3BstrokeWidth%3D1%3BfontFamily%3DVerdana%3BfontSize%3D12%3Balign%3Dcenter%3BarcSize%3D50%3B%22%20vertex%3D%221%22%20parent%3D%221%22%3E%3CmxGeometry%20x%3D%221460%22%20y%3D%22900%22%20width%3D%22100%22%20height%3D%2230%22%20as%3D%22geometry%22%2F%3E%3C%2FmxCell%3E%3C%2Froot%3E%3C%2FmxGraphModel%3E&lt;/span&gt;" style="edgeLabel;html=1;align=center;verticalAlign=middle;resizable=0;points=[];" vertex="1" connectable="0" parent="Bnq-mHq1RVCtrIzHJxgw-71">
          <mxGeometry x="-0.2631" y="-3" relative="1" as="geometry">
            <mxPoint as="offset" />
          </mxGeometry>
        </mxCell>
        <mxCell id="Bnq-mHq1RVCtrIzHJxgw-73" value="" style="rhombus;whiteSpace=wrap;html=1;" vertex="1" parent="Bnq-mHq1RVCtrIzHJxgw-68">
          <mxGeometry x="125" y="740" width="30" height="30" as="geometry" />
        </mxCell>
        <mxCell id="Bnq-mHq1RVCtrIzHJxgw-74" value="Lỗi" style="rounded=1;whiteSpace=wrap;html=1;shadow=0;comic=0;labelBackgroundColor=none;strokeWidth=1;fontFamily=Verdana;fontSize=12;align=center;arcSize=50;" vertex="1" parent="Bnq-mHq1RVCtrIzHJxgw-68">
          <mxGeometry x="148" y="850" width="100" height="30" as="geometry" />
        </mxCell>
        <mxCell id="Bnq-mHq1RVCtrIzHJxgw-75" value="Kiểm tra số dư" style="rounded=1;whiteSpace=wrap;html=1;shadow=0;comic=0;labelBackgroundColor=none;strokeWidth=1;fontFamily=Verdana;fontSize=12;align=center;arcSize=50;" vertex="1" parent="Bnq-mHq1RVCtrIzHJxgw-68">
          <mxGeometry x="60" y="460" width="100" height="30" as="geometry" />
        </mxCell>
        <mxCell id="Bnq-mHq1RVCtrIzHJxgw-76" value="" style="rhombus;whiteSpace=wrap;html=1;" vertex="1" parent="Bnq-mHq1RVCtrIzHJxgw-68">
          <mxGeometry x="95" y="510" width="30" height="30" as="geometry" />
        </mxCell>
        <mxCell id="Bnq-mHq1RVCtrIzHJxgw-77" style="edgeStyle=orthogonalEdgeStyle;rounded=0;orthogonalLoop=1;jettySize=auto;html=1;exitX=0.5;exitY=1;exitDx=0;exitDy=0;entryX=0.5;entryY=0;entryDx=0;entryDy=0;" edge="1" parent="Bnq-mHq1RVCtrIzHJxgw-68" source="Bnq-mHq1RVCtrIzHJxgw-75" target="Bnq-mHq1RVCtrIzHJxgw-76">
          <mxGeometry relative="1" as="geometry" />
        </mxCell>
        <mxCell id="Bnq-mHq1RVCtrIzHJxgw-78" style="edgeStyle=orthogonalEdgeStyle;rounded=0;orthogonalLoop=1;jettySize=auto;html=1;exitX=1;exitY=0.5;exitDx=0;exitDy=0;entryX=0.899;entryY=-0.179;entryDx=0;entryDy=0;entryPerimeter=0;" edge="1" parent="Bnq-mHq1RVCtrIzHJxgw-2" source="Bnq-mHq1RVCtrIzHJxgw-41" target="Bnq-mHq1RVCtrIzHJxgw-14">
          <mxGeometry relative="1" as="geometry">
            <mxPoint x="278.5" y="215" as="targetPoint" />
            <mxPoint x="400" y="200" as="sourcePoint" />
            <Array as="points">
              <mxPoint x="501" y="175" />
              <mxPoint x="501" y="215" />
              <mxPoint x="202" y="215" />
            </Array>
          </mxGeometry>
        </mxCell>
        <mxCell id="Bnq-mHq1RVCtrIzHJxgw-79" value="không hợp lệ" style="edgeLabel;html=1;align=center;verticalAlign=middle;resizable=0;points=[];" vertex="1" connectable="0" parent="Bnq-mHq1RVCtrIzHJxgw-78">
          <mxGeometry x="-0.4006" y="2" relative="1" as="geometry">
            <mxPoint x="-1" as="offset" />
          </mxGeometry>
        </mxCell>
        <mxCell id="Bnq-mHq1RVCtrIzHJxgw-80" style="edgeStyle=orthogonalEdgeStyle;rounded=0;orthogonalLoop=1;jettySize=auto;html=1;exitX=0;exitY=0.5;exitDx=0;exitDy=0;entryX=0.5;entryY=0;entryDx=0;entryDy=0;" edge="1" parent="Bnq-mHq1RVCtrIzHJxgw-2" source="Bnq-mHq1RVCtrIzHJxgw-76" target="Bnq-mHq1RVCtrIzHJxgw-42">
          <mxGeometry relative="1" as="geometry">
            <mxPoint x="342.75" y="530" as="targetPoint" />
          </mxGeometry>
        </mxCell>
        <mxCell id="Bnq-mHq1RVCtrIzHJxgw-81" value="Đủ" style="edgeLabel;html=1;align=center;verticalAlign=middle;resizable=0;points=[];" vertex="1" connectable="0" parent="Bnq-mHq1RVCtrIzHJxgw-80">
          <mxGeometry x="-0.2162" y="-2" relative="1" as="geometry">
            <mxPoint as="offset" />
          </mxGeometry>
        </mxCell>
        <mxCell id="Bnq-mHq1RVCtrIzHJxgw-82" style="edgeStyle=orthogonalEdgeStyle;rounded=0;orthogonalLoop=1;jettySize=auto;html=1;exitX=1;exitY=0.5;exitDx=0;exitDy=0;entryX=1;entryY=0.5;entryDx=0;entryDy=0;" edge="1" parent="Bnq-mHq1RVCtrIzHJxgw-2" source="Bnq-mHq1RVCtrIzHJxgw-76" target="Bnq-mHq1RVCtrIzHJxgw-51">
          <mxGeometry relative="1" as="geometry" />
        </mxCell>
        <mxCell id="Bnq-mHq1RVCtrIzHJxgw-83" value="Không đủ" style="edgeLabel;html=1;align=center;verticalAlign=middle;resizable=0;points=[];" vertex="1" connectable="0" parent="Bnq-mHq1RVCtrIzHJxgw-82">
          <mxGeometry x="-0.349" y="-4" relative="1" as="geometry">
            <mxPoint as="offset" />
          </mxGeometry>
        </mxCell>
      </root>
    </mxGraphModel>
  </diagram>
</mxfile>
